PathFileType	4	(X/Y/Z)	Patient4_TMGait_0pt6_02_left_41.trc.trc
DataRate	CameraRate	NumFrames	NumMarkers	Units	OrigDataRate	OrigDataStartFrame	OrigNumFrames
83.832335329341	83.832335329341	4	33	mm	83.832335329341	89	       141
Frame#	Time	Sacral			L.Shoulder			Chest			R.Shoulder			Neck			R.ASIS			L.ASIS			R.Thigh.Superior			R.Thigh.Lateral			R.Thigh.Inferior			R.Patella			L.Thigh.Superior			L.Thigh.Lateral			L.Thigh.Inferior			L.Patella			L.Shank.Superior			L.Shank.Lateral			L.Shank.Inferior			R.Shank.Superior			R.Shank.Lateral			R.Shank.Inferior			R.Heel			R.Midfoot.Superior			R.Midfoot.Lateral			R.Toe			L.Heel			L.Midfoot.Lateral			L.Midfoot.Superior			L.Toe			L.Elbow			L.Wrist			R.Elbow			R.Wrist			
		X1	Y1	Z1	X2	Y2	Z2	X3	Y3	Z3	X4	Y4	Z4	X5	Y5	Z5	X6	Y6	Z6	X7	Y7	Z7	X8	Y8	Z8	X9	Y9	Z9	X10	Y10	Z10	X11	Y11	Z11	X12	Y12	Z12	X13	Y13	Z13	X14	Y14	Z14	X15	Y15	Z15	X16	Y16	Z16	X17	Y17	Z17	X18	Y18	Z18	X19	Y19	Z19	X20	Y20	Z20	X21	Y21	Z21	X22	Y22	Z22	X23	Y23	Z23	X24	Y24	Z24	X25	Y25	Z25	X26	Y26	Z26	X27	Y27	Z27	X28	Y28	Z28	X29	Y29	Z29	X30	Y30	Z30	X31	Y31	Z31	X32	Y32	Z32	X33	Y33	Z33	

89	51.149714285714	868.176221732406	1003.469650507312	519.049655076862	1053.775383105007	1427.084707453532	331.404627548018	1151.678983574960	1357.182521662382	494.614802568123	1066.063271069612	1440.337614383395	662.379534673447	1053.856898106200	1490.179464094587	479.851997800944	1098.306792281660	942.857499850953	635.515072438988	1084.041965730271	959.170051188318	359.739995732310	1156.111379382448	749.415575561519	601.688578722825	1085.783618768431	634.662463264940	663.680749700623	1164.432716556990	589.037497320705	580.448466285064	1172.912854724778	500.997261175247	586.253575362191	1116.173656094374	737.804968271556	383.817325331734	1022.120225085853	625.605330550098	322.806928217968	1107.521639909293	538.607426564255	378.198508058272	1097.462318075193	453.707027767268	376.172816985227	1029.294792273496	397.135082278854	373.860551197700	888.387067788635	350.339200866015	330.019963719257	878.114273484670	223.331548305506	389.712889796421	1151.111175131782	410.936151544807	595.842692960471	1088.457703023292	302.539752016472	658.733724022468	1137.159340715989	210.852598714330	595.510581213411	1014.583816325141	42.527561163731	566.455779343268	1184.512467111959	98.719622308570	599.384613328769	1098.511607609161	37.169023539477	640.632604239827	1306.098792152896	48.080829418777	626.732889859263	689.803960194082	149.669446827152	432.922225453076	750.217254988766	102.500811253331	357.203259878606	852.787901142278	119.907128636163	377.507430153204	938.283247198793	32.487470880582	361.304072583394	1056.975455597877	1081.960818839307	200.815551716997	1303.814411762035	1016.733069658562	229.162386663412	995.213286685721	1100.634776932005	790.556284736033	1038.745935320410	841.793160069032	788.633407205902	
90	51.161642857143	867.783661465992	1004.448482634160	521.734051361947	1053.224957413177	1427.609658219710	332.879640791008	1152.320656116955	1357.382880877877	495.271032867790	1068.306470111384	1440.675249176940	663.720173355356	1054.609677470243	1490.630570119571	481.428460329186	1098.490677229792	943.583344586709	636.614555976021	1083.282754956848	959.898222256856	360.807291820614	1153.866378308305	748.484706021958	604.050740052963	1081.640693339461	634.752535615811	665.457249833934	1159.707058106577	588.280497480918	582.134932779916	1166.971999518227	500.504859001900	587.531179797166	1120.838641972691	740.768564002987	385.251813378275	1031.835394496728	626.032281546777	323.247473434298	1120.220667378402	541.207373448123	378.667596513298	1111.525274679301	455.051101409573	376.053257630310	1041.526447712285	398.589015563608	373.739376126719	898.947402311172	356.834993584619	329.921216982037	884.435322756184	230.082015263946	389.033738254153	1145.057865377453	410.667962094893	597.027762152750	1082.073566228732	302.294204919311	659.456493713930	1130.495318764151	210.657752443596	596.045832556655	1007.540873891249	42.514444990017	566.580544983806	1177.571067080406	98.573028943218	599.723790271319	1091.429409631003	37.089870608014	640.757773818760	1299.111444813484	47.674598806521	626.893181085271	693.696250693706	166.952479442456	431.879111753973	750.972006247268	115.298998019020	356.518127496685	854.569654955051	125.824338883089	376.818225953136	933.011365759741	31.300167884080	361.269991387508	1049.991771784249	1080.903819475749	205.140432584816	1293.646252663964	1001.159928529393	231.327810312615	1007.857704685524	1099.240664732126	794.090306288443	1064.286639171950	842.895040294090	789.012851326346	
91	51.173571428571	867.219163442813	1005.319772470300	524.301716608839	1052.498424717229	1427.961934107357	334.188117304526	1152.829365900383	1357.412702586341	495.735683836114	1070.484645015505	1440.815739937992	664.916167990742	1055.241833279107	1490.942000301938	482.849966932861	1098.465740816142	944.156381332912	637.674382955446	1082.265453875182	960.358049906078	361.866494821817	1151.551562927927	747.552930595585	606.377578582061	1077.553156779359	634.796311859860	667.196408647930	1155.015461970879	587.535511962361	583.768755340005	1161.100266362842	500.026355555068	588.794298237021	1125.364655223264	744.019745750022	386.848881472578	1041.644700346162	626.937371458054	323.660115737369	1132.751178281888	544.454073181729	379.385658104386	1125.639272298183	457.134425049793	376.296477850226	1054.088412843357	400.590585059080	373.846513801404	910.205018121452	363.479083701844	329.767045232240	891.658045153164	237.127607172826	388.512314059990	1139.081321597839	410.384404291094	598.147189466677	1075.802745999359	302.041827179305	660.188531736038	1123.870314870491	210.452096916582	596.535174599982	1000.457985491976	42.527561833095	566.695135564952	1170.631684396236	98.377968408997	600.040852665135	1084.308120956749	37.020216422662	640.878804233907	1292.098459915486	47.178704039204	627.035505878123	699.031973751860	184.109967184659	430.742651069396	753.227698300238	128.372181534249	355.764950549319	857.503065782159	132.293336744031	376.254130762296	928.974995723865	30.416327362068	361.267179313946	1043.125964291608	1079.724125312135	209.480999259271	1282.490465304378	984.947996786971	233.336570750908	1020.643567962854	1098.113126527013	797.534438448674	1090.200945263304	845.068318975495	788.874442540429	
92	51.185500000000	866.513748579727	1006.102308564560	526.730915479151	1051.633699676965	1428.158357267401	335.316514999513	1153.203273949287	1357.300123168689	496.018666405572	1072.566629772781	1440.810147708880	665.952649701948	1055.769953381425	1491.143318344935	484.084453496167	1098.240931082601	944.599569043083	638.724010675238	1080.960320183408	960.546808415940	362.971757123955	1149.220918093513	746.673733784401	608.581323910681	1073.614130145862	634.820482170732	668.858130646411	1150.446537516739	586.826489430340	585.306886871578	1155.394599173202	499.570926226648	590.002369196669	1129.651473332844	747.565946147459	388.640296705066	1051.362874105677	628.385229221220	324.077365824692	1144.909994351135	548.366387175535	380.351435758734	1139.608807221932	459.983758799783	376.846363130993	1066.796439209774	403.161118138573	374.156046972184	921.952193990020	370.142766696495	329.579706686339	899.734594158869	244.267910262846	388.138863547432	1133.256526492618	410.093647810446	599.171973016962	1069.697730536738	301.808798522464	660.918614103478	1117.316215686700	210.244922223069	596.970339439765	993.338760057502	42.568899384959	566.810873173028	1163.685731355114	98.166360861791	600.325104988792	1077.155814087047	36.965292263126	641.002553654139	1285.060828996506	46.633338202386	627.163547163394	705.724356961781	200.450634963650	429.541062268546	757.090646746730	141.155861025726	354.964281437487	861.730235695557	139.084509746494	375.800283416554	926.665758410716	30.026068254028	361.308765077930	1036.455192305017	1078.426277248019	213.849276323701	1270.241355690499	968.201371598807	235.171079473085	1033.541101317115	1097.298862830803	800.809378508952	1116.326476366601	848.412355519349	788.178362073231	
